<svg xmlns="http://www.w3.org/2000/svg" xmlns:xlink="http://www.w3.org/1999/xlink" width="207.516" height="172.61" viewBox="0 0 207.516 172.61">
  <defs>
    <linearGradient id="linear-gradient" x1="0.5" y1="1" x2="0.5" gradientUnits="objectBoundingBox">
      <stop offset="0" stop-color="gray" stop-opacity="0.251"/>
      <stop offset="0.54" stop-color="gray" stop-opacity="0.122"/>
      <stop offset="1" stop-color="gray" stop-opacity="0.102"/>
    </linearGradient>
  </defs>
  <g id="Group_18" data-name="Group 18" transform="translate(-76.484 -224.142)">
    <g id="Group_4" data-name="Group 4" transform="translate(0 -14.248)" opacity="0.8">
      <text id="Add_a_task_to_get_started" data-name="Add a task to get started" transform="translate(114 408)" fill="#707070" font-size="12" font-family="Roboto-Medium, Roboto" font-weight="500" opacity="0.65"><tspan x="0" y="0">Add a task to get started</tspan></text>
    </g>
    <g id="undraw_to_do_list_a49b_1_" data-name="undraw_to_do_list_a49b (1)" transform="translate(76.487 224.142)">
      <path id="Path_141" data-name="Path 141" d="M86.371,58.987c7.04-6.342,18.093-7.633,28.152-7.128,31.6,1.586,60.119,16.988,84.791,34.411,8.931,6.308,17.725,13.111,23.528,21.791,11.8,17.682,8.3,42.177-8.109,56.743-5.584,4.957-12.353,8.755-19.3,12.125-12.355,5.988-25.683,10.794-39.708,12.162-10,.975-20.115.18-30.065-1.178-27.775-3.8-55.038-12.213-77.891-26.606-10.027-6.311-19.474-14.158-23.6-24.373s-1.487-23.149,8.746-29.192c4.233-2.5,9.292-3.628,14.248-4.689,7.294-1.559,14.7-3.1,21.284-6.27,6.8-3.276,14.846-9.612,13.5-16.864C80.5,72.143,79.34,65.309,86.371,58.987Z" transform="translate(-22.3 -51.76)" fill="#518aff" opacity="0.1"/>
      <path id="Path_142" data-name="Path 142" d="M279,496.012a4.228,4.228,0,0,1,3.79-.51s-.539,1.146-2.94,1.131Z" transform="translate(-232.899 -415.585)" fill="#518aff"/>
      <path id="Path_143" data-name="Path 143" d="M277.353,500a4.227,4.227,0,0,0,1.018,3.687s.841-.947-.115-3.148Z" transform="translate(-231.484 -419.496)" fill="#518aff"/>
      <path id="Path_144" data-name="Path 144" d="M264,481.824s.068-1.888,4.343-1.426a2.03,2.03,0,0,1-1.4,1.846A2.448,2.448,0,0,1,264,481.824Z" transform="translate(-220.593 -403.355)" fill="#518aff"/>
      <path id="Path_145" data-name="Path 145" d="M258.9,488.65s-1.776.647-.02,4.573a2.031,2.031,0,0,0,1.324-1.9A2.455,2.455,0,0,0,258.9,488.65Z" transform="translate(-215.754 -410.185)" fill="#518aff"/>
      <path id="Path_146" data-name="Path 146" d="M248.527,460.854s-.359-3.089,3.994-2.938c0,0,.415,2.793-3.2,3.653Z" transform="translate(-207.893 -384.966)" fill="#518aff"/>
      <path id="Path_147" data-name="Path 147" d="M231.83,442.674s.462-3.533,4.849-2.654c0,0,.133,3.035-4.1,3.464Z" transform="translate(-194.201 -370.173)" fill="#518aff"/>
      <path id="Path_148" data-name="Path 148" d="M219.38,423.244s.866-3.464,5.208-2.6a4.962,4.962,0,0,1-4.9,3.22Z" transform="translate(-183.987 -354.28)" fill="#518aff"/>
      <path id="Path_149" data-name="Path 149" d="M207.53,403.6s.839-3.592,5.029-2.68c0,0-1.257,3.425-4.736,3.274Z" transform="translate(-174.265 -338.091)" fill="#518aff"/>
      <path id="Path_150" data-name="Path 150" d="M199.66,381.408s.584-4.37,4.49-3.558c0,0-.973,3.993-4.185,4.177Z" transform="translate(-167.809 -319.202)" fill="#518aff"/>
      <path id="Path_151" data-name="Path 151" d="M192.09,359.961s.731-4.409,4.7-3.287c0,0-1.379,4.194-4.4,3.881Z" transform="translate(-161.598 -301.761)" fill="#518aff"/>
      <path id="Path_152" data-name="Path 152" d="M187.13,334.777s1.257-4.429,4.3-4.427c0,0-1.284,4.67-4.009,5.295Z" transform="translate(-157.529 -280.315)" fill="#518aff"/>
      <path id="Path_153" data-name="Path 153" d="M183.71,311.614s1.352-5.327,3.834-5.014c0,0-.921,4.066-3.716,5.832Z" transform="translate(-154.723 -260.819)" fill="#518aff"/>
      <path id="Path_154" data-name="Path 154" d="M181.28,288.633s1.288-4.443,3.716-4.713c0,0-.826,4.355-3.619,5.851Z" transform="translate(-152.73 -242.224)" fill="#518aff"/>
      <path id="Path_155" data-name="Path 155" d="M178.76,266.315s1.649-4.463,3.254-4.625c0,0-.623,4.355-3.066,5.339Z" transform="translate(-150.662 -223.986)" fill="#518aff"/>
      <path id="Path_156" data-name="Path 156" d="M176.83,242.181s.934-4.815,2.525-5.271c0,0-.07,3.91-2.351,5.621Z" transform="translate(-149.079 -203.657)" fill="#518aff"/>
      <path id="Path_157" data-name="Path 157" d="M172.4,218.167s1.029-3.847,2.308-4.477c0,0-.086,4.49-1.976,5.388Z" transform="translate(-145.445 -184.607)" fill="#518aff"/>
      <path id="Path_158" data-name="Path 158" d="M166.644,189.9l-.494-6.7s2.622,4.968.718,7.872Z" transform="translate(-140.317 -159.593)" fill="#518aff"/>
      <path id="Path_159" data-name="Path 159" d="M146.179,160.546s-1.938-4.829-2.369-5.086c0,0,3.556,3.053,3.376,7.144Z" transform="translate(-121.989 -136.835)" fill="#518aff"/>
      <path id="Path_160" data-name="Path 160" d="M234.867,474.182s-3.1-.286-2.838,4.064c0,0,2.8.347,3.572-3.289Z" transform="translate(-194.352 -398.312)" fill="#518aff"/>
      <path id="Path_161" data-name="Path 161" d="M216.653,454.82s-3.56.124-3.1,4.569c0,0,3.008.42,3.836-3.755Z" transform="translate(-179.173 -382.43)" fill="#518aff"/>
      <path id="Path_162" data-name="Path 162" d="M195.458,436.3s-3.29-1.392-5.208,2.6a4.978,4.978,0,0,0,5.517-1.976Z" transform="translate(-160.089 -367.041)" fill="#518aff"/>
      <path id="Path_163" data-name="Path 163" d="M183.527,415.447s-3.369-1.487-5.167,2.41c0,0,3.493,1.054,5.463-1.818Z" transform="translate(-150.334 -349.901)" fill="#518aff"/>
      <path id="Path_164" data-name="Path 164" d="M173.764,393.032s-3.3-2.92-5.724.255c0,0,3.35,2.378,5.9.417Z" transform="translate(-141.868 -330.734)" fill="#518aff"/>
      <path id="Path_165" data-name="Path 165" d="M166.94,369.581s-3.323-2.989-5.72.359c0,0,3.694,2.416,5.86.286Z" transform="translate(-136.273 -311.493)" fill="#518aff"/>
      <path id="Path_166" data-name="Path 166" d="M163.85,340.627s-2.617-3.79-5.49-2.812c0,0,2.719,4.016,5.5,3.727Z" transform="translate(-133.926 -286.307)" fill="#518aff"/>
      <path id="Path_167" data-name="Path 167" d="M161.3,316.243s-2.678-4.8-4.995-3.86c0,0,1.936,3.693,5.088,4.679Z" transform="translate(-132.244 -265.475)" fill="#518aff"/>
      <path id="Path_168" data-name="Path 168" d="M158.961,293.889s-2.7-3.754-5.081-3.191c0,0,2.24,3.825,5.372,4.3Z" transform="translate(-130.251 -247.737)" fill="#518aff"/>
      <path id="Path_169" data-name="Path 169" d="M163.079,267.612s-2.146-4.246-3.759-4.222c0,0,1.115,4.256,3.653,4.953Z" transform="translate(-134.714 -225.381)" fill="#518aff"/>
      <path id="Path_170" data-name="Path 170" d="M158.857,246.356s-2.371-4.292-4.027-4.239c0,0,1.272,3.7,3.967,4.626Z" transform="translate(-131.03 -207.929)" fill="#518aff"/>
      <path id="Path_171" data-name="Path 171" d="M159.956,222.107s-1.787-3.56-3.166-3.917c0,0,.993,4.382,3.021,4.885Z" transform="translate(-132.638 -188.299)" fill="#518aff"/>
      <path id="Path_172" data-name="Path 172" d="M149.986,194.847l-3.9-5.467s1.155,5.5,4.474,6.516Z" transform="translate(-123.86 -164.663)" fill="#518aff"/>
      <path id="Path_173" data-name="Path 173" d="M131.564,171.572s-4.384-2.789-4.564-3.262c0,0,2.335,4.055,6.4,4.63Z" transform="translate(-108.198 -147.377)" fill="#518aff"/>
      <path id="Path_174" data-name="Path 174" d="M121.707,158.659s-5.093-4.535-6.347-4.481a8.043,8.043,0,0,1,6.466,4.226Z" transform="translate(-98.649 -135.783)" fill="#518aff"/>
      <path id="Path_175" data-name="Path 175" d="M154.061,189.041l-.18.031c-1.2-7.193-2.71-11.412-4.251-11.882l.052-.18C151.313,177.506,152.832,181.663,154.061,189.041Z" transform="translate(-126.764 -154.515)" fill="#444053"/>
      <path id="Path_176" data-name="Path 176" d="M175.229,258.742l-.269.032c-.083-.672-.154-1.361-.21-2.047-.487-5.972-1.1-11.449-1.78-15.548l.149-.2c.684,4.106,1.413,9.745,1.9,15.726C175.077,257.388,175.147,258.072,175.229,258.742Z" transform="translate(-145.912 -206.996)" fill="#444053"/>
      <path id="Path_177" data-name="Path 177" d="M205.985,369.5a35.268,35.268,0,0,1-10.027-6.845,39.268,39.268,0,0,1-7.514-9.824,45.849,45.849,0,0,1-4.754-15.763l.287.122a41.624,41.624,0,0,0,12.213,25.192,34.869,34.869,0,0,0,9.923,6.78Z" transform="translate(-154.707 -285.828)" fill="#444053"/>
      <g id="Group_15" data-name="Group 15" transform="translate(39.906 1.08)" opacity="0.7">
        <path id="Path_178" data-name="Path 178" d="M320.84,435.344a4.236,4.236,0,0,1,3.772.641s-.857.934-3.145.2Z" transform="translate(-307.131 -367.376)" fill="#518aff"/>
        <path id="Path_179" data-name="Path 179" d="M316.991,436.23a4.229,4.229,0,0,0-.124,3.822s1.078-.652.828-3.039Z" transform="translate(-303.526 -368.259)" fill="#518aff"/>
        <path id="Path_180" data-name="Path 180" d="M309.75,417.626s.629-1.782,4.571-.07a2.027,2.027,0,0,1-1.889,1.345A2.453,2.453,0,0,1,309.75,417.626Z" transform="translate(-298.033 -352.329)" fill="#518aff"/>
        <path id="Path_181" data-name="Path 181" d="M301.665,420.89s-1.886.09-1.379,4.359a2.03,2.03,0,0,0,1.832-1.424A2.451,2.451,0,0,0,301.665,420.89Z" transform="translate(-290.197 -355.674)" fill="#518aff"/>
        <path id="Path_182" data-name="Path 182" d="M299.3,393.86s.573-3.053,4.686-1.616c0,0-.433,2.789-4.14,2.536Z" transform="translate(-289.46 -331.857)" fill="#518aff"/>
        <path id="Path_183" data-name="Path 183" d="M288.94,371.666s1.491-3.233,5.413-1.092c0,0-.776,2.936-4.948,2.087Z" transform="translate(-280.96 -313.793)" fill="#518aff"/>
        <path id="Path_184" data-name="Path 184" d="M282.9,349.867s1.859-3.053,5.747-.932a4.978,4.978,0,0,1-5.634,1.616Z" transform="translate(-276.005 -296.027)" fill="#518aff"/>
        <path id="Path_185" data-name="Path 185" d="M277.31,327.5s1.868-3.175,5.6-1.061c0,0-2.218,2.9-5.494,1.717Z" transform="translate(-271.419 -277.586)" fill="#518aff"/>
        <path id="Path_186" data-name="Path 186" d="M275.27,303.922s1.857-4,5.348-2.058c0,0-2.117,3.52-5.237,2.742Z" transform="translate(-269.746 -257.589)" fill="#518aff"/>
        <path id="Path_187" data-name="Path 187" d="M274.69,281.1s2.01-3.992,5.46-1.74c0,0-2.563,3.592-5.354,2.4Z" transform="translate(-269.27 -239.001)" fill="#518aff"/>
        <path id="Path_188" data-name="Path 188" d="M276.16,256.73s2.514-3.854,5.417-2.949c0,0-2.617,4.082-5.4,3.863Z" transform="translate(-270.476 -218.465)" fill="#518aff"/>
        <path id="Path_189" data-name="Path 189" d="M278.409,233s2.874-4.682,5.153-3.646c0,0-2.091,3.608-5.282,4.461Z" transform="translate(-272.215 -198.416)" fill="#518aff"/>
        <path id="Path_190" data-name="Path 190" d="M282.774,210.627s2.554-3.86,4.95-3.394c0,0-2.083,3.913-5.194,4.51Z" transform="translate(-275.702 -180.357)" fill="#518aff"/>
        <path id="Path_191" data-name="Path 191" d="M288.1,188.033s2.9-3.772,4.481-3.445c0,0-1.891,3.973-4.515,4.183Z" transform="translate(-280.247 -161.795)" fill="#518aff"/>
        <path id="Path_192" data-name="Path 192" d="M292.71,163.511s2.324-4.31,3.98-4.282c0,0-1.232,3.712-3.917,4.67Z" transform="translate(-284.053 -141.007)" fill="#518aff"/>
        <path id="Path_193" data-name="Path 193" d="M296.7,138.952s2.128-3.366,3.536-3.592c0,0-1.419,4.264-3.488,4.564Z" transform="translate(-287.327 -121.425)" fill="#518aff"/>
        <path id="Path_194" data-name="Path 194" d="M298.136,107.121l1.521-6.541S300.683,106.1,298,108.3Z" transform="translate(-288.393 -92.891)" fill="#518aff"/>
        <path id="Path_195" data-name="Path 195" d="M294.919,73s-.415-5.187-.749-5.568c0,0,2.489,3.966,1.1,7.827Z" transform="translate(-285.251 -65.695)" fill="#518aff"/>
        <path id="Path_196" data-name="Path 196" d="M280.8,402.022s-2.874-1.193-3.917,3.039c0,0,2.57,1.164,4.388-2.078Z" transform="translate(-271.066 -340.068)" fill="#518aff"/>
        <path id="Path_197" data-name="Path 197" d="M268.589,378.813s-3.436-.939-4.319,3.441c0,0,2.748,1.3,4.781-2.444Z" transform="translate(-260.721 -321.085)" fill="#518aff"/>
        <path id="Path_198" data-name="Path 198" d="M256.047,355.411s-2.726-2.308-5.747.932a4.975,4.975,0,0,0,5.857-.248Z" transform="translate(-249.26 -301.301)" fill="#518aff"/>
        <path id="Path_199" data-name="Path 199" d="M251.07,331.705s-2.777-2.421-5.65.763c0,0,3.021,2.047,5.756-.108Z" transform="translate(-245.257 -281.784)" fill="#518aff"/>
        <path id="Path_200" data-name="Path 200" d="M250.052,306.222s-2.285-3.772-5.542-1.462c0,0,2.491,3.269,5.507,2.155Z" transform="translate(-244.51 -259.787)" fill="#518aff"/>
        <path id="Path_201" data-name="Path 201" d="M250.378,281.882s-2.285-3.842-5.568-1.356c0,0,2.809,3.412,5.508,2.017Z" transform="translate(-244.756 -239.832)" fill="#518aff"/>
        <path id="Path_202" data-name="Path 202" d="M257.974,250.935s-1.37-4.395-4.4-4.31c0,0,1.4,4.644,4.14,5.194Z" transform="translate(-251.943 -212.705)" fill="#518aff"/>
        <path id="Path_203" data-name="Path 203" d="M262.849,226.674s-1.128-5.379-3.619-5.171c0,0,.751,4.1,3.466,5.982Z" transform="translate(-256.586 -192.092)" fill="#518aff"/>
        <path id="Path_204" data-name="Path 204" d="M267.353,204.38s-1.466-4.389-3.9-4.56c0,0,1,4.319,3.851,5.7Z" transform="translate(-260.048 -174.308)" fill="#518aff"/>
        <path id="Path_205" data-name="Path 205" d="M279.154,180.269s-.787-4.691-2.335-5.149c0,0-.2,4.395,2.015,5.817Z" transform="translate(-271.012 -154.044)" fill="#518aff"/>
        <path id="Path_206" data-name="Path 206" d="M281.473,158.724s-.986-4.8-2.583-5.244c0,0,.113,3.91,2.412,5.6Z" transform="translate(-272.715 -136.291)" fill="#518aff"/>
        <path id="Path_207" data-name="Path 207" d="M289.593,135.932s-.647-3.93-1.857-4.682c0,0-.359,4.479,1.437,5.568Z" transform="translate(-279.949 -118.053)" fill="#518aff"/>
        <path id="Path_208" data-name="Path 208" d="M288.141,106.859l-2.094-6.379s-.539,5.593,2.335,7.552Z" transform="translate(-278.554 -92.809)" fill="#518aff"/>
        <path id="Path_209" data-name="Path 209" d="M277.659,79.2s-3.364-3.971-3.389-4.472c0,0,1.029,4.567,4.736,6.325Z" transform="translate(-268.925 -71.684)" fill="#518aff"/>
        <path id="Path_210" data-name="Path 210" d="M272.1,63.939s-3.515-5.846-4.727-6.169a8.032,8.032,0,0,1,4.907,5.956Z" transform="translate(-263.264 -57.77)" fill="#518aff"/>
        <path id="Path_211" data-name="Path 211" d="M293.714,102.612l-.18-.025c.993-7.222.808-11.7-.524-12.608l.1-.149C294.526,90.794,294.732,95.214,293.714,102.612Z" transform="translate(-284.299 -84.072)" fill="#444053"/>
        <path id="Path_212" data-name="Path 212" d="M277.908,175.666l-.268-.048c.122-.666.259-1.345.409-2.019,1.313-5.846,2.36-11.255,2.926-15.372l.2-.147c-.568,4.131-1.55,9.725-2.863,15.58C278.164,174.319,278.028,174.995,277.908,175.666Z" transform="translate(-271.69 -140.064)" fill="#444053"/>
        <path id="Path_213" data-name="Path 213" d="M286.046,290.307a35.346,35.346,0,0,1-7.543-9.519,39.236,39.236,0,0,1-4.249-11.615,45.809,45.809,0,0,1,.151-16.464l.237.2a41.61,41.61,0,0,0,4.174,27.689,34.769,34.769,0,0,0,7.455,9.425Z" transform="translate(-268.358 -217.699)" fill="#444053"/>
      </g>
      <path id="Path_214" data-name="Path 214" d="M1005.722,805.825s-7.594-.458-6.7,4.864a1.3,1.3,0,0,0,.674,1.367s.014-.4.779-.26a3.478,3.478,0,0,0,.824.039,1.728,1.728,0,0,0,1.009-.417h0s2.134-.882,2.963-4.37c0,0,.614-.762.591-.957l-1.282.539a2.3,2.3,0,0,1,.093,1.692s-.041-1.658-.287-1.616c-.05.009-.666.321-.666.321a3.769,3.769,0,0,1,.18,2.78s.216-1.985-.42-2.665l-.9.528a3.983,3.983,0,0,1,.284,3.019s.153-2.081-.474-2.892l-.817.638a3.892,3.892,0,0,1,.323,2.764s-.066-2.423-.5-2.606a4.7,4.7,0,0,0-.824.9s.566,1.189.216,1.818c0,0-.216-1.616-.393-1.616a5.244,5.244,0,0,0-.787,1.8,3.88,3.88,0,0,1,.614-1.9,2.135,2.135,0,0,0-1.09.564s.111-.756,1.257-.823a4.988,4.988,0,0,1,.747-.86,4.7,4.7,0,0,0-1.848.214,2.063,2.063,0,0,1,2.058-.39l.806-.659a6.681,6.681,0,0,0-2.155.022,2.622,2.622,0,0,1,2.373-.171l.878-.524a8,8,0,0,0-2.058-.18,3.155,3.155,0,0,1,2.317.036l.629-.282s-.946-.18-1.223-.216-.291-.106-.291-.106a3.272,3.272,0,0,1,1.774.2A8.037,8.037,0,0,0,1005.722,805.825Z" transform="translate(-823.547 -670.387)" fill="#518aff"/>
      <ellipse id="Ellipse_9" data-name="Ellipse 9" cx="5.374" cy="0.909" rx="5.374" ry="0.909" transform="translate(171.571 141.223)" fill="#518aff" opacity="0.1"/>
      <path id="Path_215" data-name="Path 215" d="M1100.33,727.775s-4.28-.257-3.772,2.742a.731.731,0,0,0,.379.771s.009-.223.44-.147a1.909,1.909,0,0,0,.465.023.961.961,0,0,0,.568-.235h0a3.4,3.4,0,0,0,1.672-2.464s.347-.429.332-.539l-.718.309a1.3,1.3,0,0,1,.052.954s-.023-.936-.162-.912c-.029,0-.375.18-.375.18a2.141,2.141,0,0,1,.1,1.568s.122-1.119-.237-1.5l-.508.3a2.248,2.248,0,0,1,.16,1.7,3.192,3.192,0,0,0-.268-1.631l-.46.359a2.2,2.2,0,0,1,.18,1.559s-.038-1.365-.282-1.469a2.878,2.878,0,0,0-.465.5s.32.672.122,1.026c0,0-.122-.911-.221-.914a3.016,3.016,0,0,0-.443,1.016,2.194,2.194,0,0,1,.347-1.078,1.21,1.21,0,0,0-.616.318s.063-.426.718-.463a2.8,2.8,0,0,1,.42-.485,2.647,2.647,0,0,0-1.042.12,1.173,1.173,0,0,1,1.16-.221l.456-.37a3.756,3.756,0,0,0-1.216.013,1.466,1.466,0,0,1,1.338-.1l.5-.3a4.532,4.532,0,0,0-1.162-.1,1.781,1.781,0,0,1,1.306.021l.359-.16s-.539-.1-.69-.12-.165-.061-.165-.061a1.853,1.853,0,0,1,1,.111A4.282,4.282,0,0,0,1100.33,727.775Z" transform="translate(-903.59 -606.358)" fill="#518aff"/>
      <ellipse id="Ellipse_10" data-name="Ellipse 10" cx="3.03" cy="0.512" rx="3.03" ry="0.512" transform="translate(190.763 124.68)" fill="#518aff" opacity="0.1"/>
      <path id="Path_216" data-name="Path 216" d="M956.009,742.269s-5.169-.312-4.558,3.31a.882.882,0,0,0,.458.93s0-.268.53-.18a2.47,2.47,0,0,0,.562.029,1.182,1.182,0,0,0,.686-.284h0a4.1,4.1,0,0,0,2.019-2.976s.418-.517.4-.65l-.871.372a1.564,1.564,0,0,1,.063,1.153s-.027-1.13-.2-1.1c-.034,0-.453.217-.453.217a2.585,2.585,0,0,1,.126,1.893s.147-1.351-.286-1.814l-.614.359a2.715,2.715,0,0,1,.192,2.056,3.892,3.892,0,0,0-.321-1.976l-.557.433a2.651,2.651,0,0,1,.221,1.882s-.045-1.649-.341-1.774a3.377,3.377,0,0,0-.56.605s.384.81.145,1.237c0,0-.145-1.1-.266-1.1a3.7,3.7,0,0,0-.539,1.227,2.653,2.653,0,0,1,.418-1.3,1.46,1.46,0,0,0-.742.384s.075-.516.862-.56a3.381,3.381,0,0,1,.508-.585,3.2,3.2,0,0,0-1.257.146,1.407,1.407,0,0,1,1.4-.266l.55-.447a4.513,4.513,0,0,0-1.467.014,1.788,1.788,0,0,1,1.616-.117l.6-.359a5.409,5.409,0,0,0-1.4-.122,2.158,2.158,0,0,1,1.577.025l.429-.176s-.643-.126-.832-.146-.2-.072-.2-.072a2.232,2.232,0,0,1,1.209.135A5.4,5.4,0,0,0,956.009,742.269Z" transform="translate(-784.537 -618.248)" fill="#518aff"/>
      <ellipse id="Ellipse_11" data-name="Ellipse 11" cx="3.658" cy="0.618" rx="3.658" ry="0.618" transform="translate(164.254 127.959)" fill="#518aff" opacity="0.1"/>
      <path id="Path_217" data-name="Path 217" d="M308.712,399.832,290.7,406.8,264.363,416.98c-.993-1.844-2.459-4.368-4.273-7.364-6.236-10.336-16.555-26.412-25.74-40.539-10.352-15.918-19.26-29.359-19.26-29.359l6.449-1.87,52.68-15.279Z" transform="translate(-180.467 -273.932)" opacity="0.1"/>
      <path id="Path_218" data-name="Path 218" d="M310.712,392.832,292.7,399.8,266.363,409.98c-.993-1.845-2.459-4.368-4.273-7.364-6.236-10.336-16.555-26.412-25.74-40.539-10.352-15.918-19.26-29.359-19.26-29.359l6.449-1.87,52.68-15.279Z" transform="translate(-182.108 -268.19)" fill="#fff"/>
      <path id="Path_219" data-name="Path 219" d="M340.172,392.832l-18.016,6.97a135.492,135.492,0,0,1-30.606,2.814C285.315,392.28,275,376.2,265.811,362.077L253,330.849l52.68-15.279Z" transform="translate(-211.569 -268.19)" opacity="0.1"/>
      <path id="Path_220" data-name="Path 220" d="M342.09,353.383S314.1,369.939,272.316,366.2L239,284.99l15.965-2.742,55.187-9.477,31.313,79.043Z" transform="translate(-200.083 -233.076)" fill="#518aff"/>
      <path id="Path_221" data-name="Path 221" d="M414.423,351.813a132.506,132.506,0,0,1-21.886-.621c-8.3-.973-16.642-2.989-23.808-6.678a72.288,72.288,0,0,1-15.564-10.454c-11.6-10.438-18.786-25.37-25.236-51.813l55.187-9.477Z" transform="translate(-273.041 -233.076)" opacity="0.1"/>
      <path id="Path_222" data-name="Path 222" d="M417.848,239.235s-20.64,4.045-41.628,1.554c-8.3-.979-16.651-2.989-23.808-6.677a72.288,72.288,0,0,1-15.564-10.454c-14.368-12.931-21.949-32.727-29.769-72.722,0,0,34.3,8.278,68.2-9.855C375.276,141.08,386.707,212.429,417.848,239.235Z" transform="translate(-255.936 -125.038)" fill="#fff"/>
      <path id="Path_223" data-name="Path 223" d="M512.2,582.912c-8.3-.979-16.651-2.989-23.808-6.677A72.289,72.289,0,0,1,472.83,565.78c12.229-.993,13.987-7.68,13.987-7.68C495.883,572.489,512.2,582.912,512.2,582.912Z" transform="translate(-391.917 -467.161)" opacity="0.1"/>
      <path id="Path_224" data-name="Path 224" d="M405.85,243.048s18.427,2.1,35.674-7.588l1.182,3.795a91.63,91.63,0,0,1-36.856,8.227Z" transform="translate(-336.967 -202.467)" fill="#518aff" opacity="0.3"/>
      <path id="Path_225" data-name="Path 225" d="M405.85,330.225a121.344,121.344,0,0,0,38.713-11.335l.69,1.577s-7.505,9.445-39.4,11.913Z" transform="translate(-336.967 -270.913)" opacity="0.3"/>
      <path id="Path_226" data-name="Path 226" d="M417.94,370.913a121.366,121.366,0,0,0,38.713-11.333l.69,1.577s-7.5,9.454-39.4,11.924Z" transform="translate(-346.886 -304.295)" opacity="0.3"/>
      <path id="Path_227" data-name="Path 227" d="M429,414.763a121.365,121.365,0,0,0,38.713-11.333l.69,1.577s-7.514,9.449-39.4,11.924Z" transform="translate(-355.959 -340.27)" opacity="0.3"/>
      <path id="Path_228" data-name="Path 228" d="M442.13,452.343a121.365,121.365,0,0,0,38.713-11.333l.69,1.577s-7.5,9.451-39.4,11.925Z" transform="translate(-366.731 -371.101)" opacity="0.3"/>
      <path id="Path_229" data-name="Path 229" d="M454.23,493.063a121.365,121.365,0,0,0,38.713-11.333l.69,1.577s-7.505,9.451-39.4,11.924Z" transform="translate(-376.658 -404.507)" opacity="0.1"/>
      <rect id="Rectangle_13" data-name="Rectangle 13" width="5.415" height="5.415" transform="translate(110.622 44.803) rotate(-18.8)" fill="#518aff" opacity="0.3"/>
      <rect id="Rectangle_14" data-name="Rectangle 14" width="5.415" height="5.415" transform="translate(113.538 52.429) rotate(-18.8)" fill="#518aff" opacity="0.3"/>
      <rect id="Rectangle_15" data-name="Rectangle 15" width="5.415" height="5.415" transform="translate(118.213 67.102) rotate(-18.8)" fill="#518aff" opacity="0.3"/>
      <rect id="Rectangle_16" data-name="Rectangle 16" width="5.415" height="5.415" transform="translate(120.896 74.978) rotate(-18.8)" fill="#518aff" opacity="0.3"/>
      <rect id="Rectangle_17" data-name="Rectangle 17" width="5.415" height="5.415" transform="translate(115.916 60.351) rotate(-18.8)" fill="#518aff" opacity="0.3"/>
      <path id="Path_230" data-name="Path 230" d="M803.136,315.576l-.192-.18c.5-.1.963-.145.963-.145s-1.7-6.153-4.569-8.206a13.465,13.465,0,0,1-3.436-4.154,62.813,62.813,0,0,0-5.117-7.5l-.517-.652-.223-.284a2.477,2.477,0,0,0,.648-1.464.023.023,0,0,1,0-.011.677.677,0,0,0,0-.086,1,1,0,0,0-.036-.2l-.02.031c-.242-.7-1.175-1.015-1.866-1.4-1.616-.911-2.308-2.9-2.653-4.75-.269-1.437-.492-3.053-1.616-3.978-.718-.594-1.7-.79-2.419-1.381a7.073,7.073,0,0,1-1.5-2.191,8.777,8.777,0,0,0-2.918-3.292,4.868,4.868,0,0,0-4.215-.557c-.526.2-1,.514-1.525.731-1.293.539-2.775.467-4.055,1.036-1.577.7-2.6,2.249-3.54,3.718a17.694,17.694,0,0,0-1.679,2.99v-.117a4.278,4.278,0,0,0-.334,1.555,2.341,2.341,0,0,0,.074.675,2.178,2.178,0,0,0,1.458,1.392,6.1,6.1,0,0,0,.158.677,6.645,6.645,0,0,0,4.292,4.384c.059.022.12.036.18.054a1.426,1.426,0,0,0,.214.4c.573.718,1.722.514,2.469-.009.031-.02.059-.045.088-.066a2.694,2.694,0,0,0,.032.3c.016.086.029.18.047.257a12.414,12.414,0,0,0,2.4,5.589s.16.241.42.639a8.011,8.011,0,0,0,1.834,5.237c-.911.526-2.874,1.557-4.088,1.471,0,0-4.461.577-4.979.287-.072-.04-.14.014-.2.136-1.229-.749-5.156-2.908-5.492-.136-.3,2.514,3.276,2.836,4.98,2.848-.077.736-.12,1.325-.12,1.325l7.329-.5,3.816-.562a4.591,4.591,0,0,1-1.363,1.3s-3.45,2.793-4.046,2.818c-.084,0-.111.084-.1.219-1.451,0-5.964.21-4.713,2.725,1.137,2.279,4.337.7,5.785-.169.341.663.632,1.182.632,1.182l5.914-4.212,1.281-1.078a4.556,4.556,0,0,0,1.273-.246.146.146,0,0,0,.018.047,2.446,2.446,0,0,1,.1.406c.359,2.064-.848,6.877-.848,6.877s-2.654,6.769-1.379,7.692.332,4.819.332,4.819a7.192,7.192,0,0,0,.765,1.056h0a3.2,3.2,0,0,0,.447.426,4.146,4.146,0,0,0-.147.494,4.027,4.027,0,0,0,.21,2.486,11.314,11.314,0,0,1,.343,5.208l-1.721,11.624a4.886,4.886,0,0,0-2.29,0c-.609.343-.41,2.073,1,2.816a3.638,3.638,0,0,1-1.455.67c-1.257.287-2.141.471-2.723.582-.038,0-3.017-.657-3.782-.223s-.4,2.845,1.78,3.436c2.13.576,10.074,1.422,12.362,1.078l.145-.025c1.945-.384.237-2.94.022-3.251-.014-.1-.027-.214-.041-.332-.03-.266-.057-.571-.077-.9a29.058,29.058,0,0,0,5.293.149.572.572,0,0,0,.129-.023c1.722-.341.214-2.6.02-2.874q-.012-.1-.027-.221v-.02c0-.052-.013-.108-.018-.162a.694.694,0,0,0-.014-.14c-.014-.049,0-.086-.013-.131q-.011-.133-.022-.275v-.117c0-.072-.009-.144-.013-.217v-.12c0-.108,0-.219-.011-.331v-.878c0-.12.011-.244.018-.368l.011-.133c0-.092.014-.18.023-.273a.43.43,0,0,1,.014-.135c.014-.126.031-.251.048-.379a.825.825,0,0,1,.018-.113c.016-.1.032-.192.05-.289a.7.7,0,0,1,.029-.144q.032-.156.07-.312a.372.372,0,0,1,.02-.086c.032-.126.068-.25.106-.374.013-.043.027-.086.041-.129.03-.093.063-.18.1-.277l.043-.115c.048-.122.1-.242.155-.359.014-.031.03-.061.047-.092.045-.093.093-.18.144-.277l.061-.106c.068-.115.138-.23.216-.339,1.976-2.816,2.5-8.247,2.448-9.429s.235-3.633.589-4a31.2,31.2,0,0,0,2.441-3.61c.149-.266.278-.515.381-.738.585-.2.973-.359.973-.359h0a8.324,8.324,0,0,1-.294-2.315,7.017,7.017,0,0,1,2.169-5.176A8.463,8.463,0,0,0,803.15,316v-.171C803.145,315.659,803.136,315.576,803.136,315.576Z" transform="translate(-628.496 -234.834)" fill="url(#linear-gradient)"/>
      <path id="Path_231" data-name="Path 231" d="M883.93,572.49a30.864,30.864,0,0,1-2.335,3.569c-.338.359-.609,2.786-.562,3.951s-.447,6.539-2.335,9.323-.918,7.6-.918,7.6l-3.012,1.056H871.15l-2.493-.745L868,595.425s.876-.135,3.053-.652a2.825,2.825,0,0,0,2.254-2.563l1.528-10.674a10.216,10.216,0,0,0-.293-4.558,3.711,3.711,0,0,1,.244-3.251l.049-.075a30.438,30.438,0,0,1,4.761-3.028c2.128-1.027,4.287-1.516,4.9.307A3.166,3.166,0,0,1,883.93,572.49Z" transform="translate(-716.115 -476.684)" fill="#a5636d"/>
      <path id="Path_232" data-name="Path 232" d="M883.93,572.49a30.864,30.864,0,0,1-2.335,3.569c-.338.359-.609,2.786-.562,3.951s-.447,6.539-2.335,9.323c-1.329,1.963-1.241,4.93-1.078,6.512.07.663.156,1.078.156,1.078l-3.012,1.056H871.15l-2.493-.74L868,595.425s.219-.034.718-.131,1.257-.262,2.346-.521a2.825,2.825,0,0,0,2.243-2.563l1.528-10.674a10.216,10.216,0,0,0-.293-4.558,3.711,3.711,0,0,1,.244-3.251l.049-.075a30.438,30.438,0,0,1,4.761-3.028c2.128-1.027,4.287-1.516,4.9.307A3.166,3.166,0,0,1,883.93,572.49Z" transform="translate(-716.115 -476.684)" opacity="0.05"/>
      <path id="Path_233" data-name="Path 233" d="M877.781,713.806l-3.012,1.056H871.15l-2.493-.747L868,712.3s.219-.034.718-.131a1.356,1.356,0,0,0,1.043,1.466l1.415.049c.2,0,.4.011.6.011a18.047,18.047,0,0,0,5.851-.972C877.7,713.386,877.781,713.806,877.781,713.806Z" transform="translate(-716.115 -593.561)" opacity="0.1"/>
      <path id="Path_234" data-name="Path 234" d="M858.6,712.457l-1.417-.049a1.382,1.382,0,0,1-1-1.78s-2.55-.578-3.2-.2-.338,2.493,1.505,3.01c1.8.5,8.524,1.246,10.458.943l.124-.022c1.753-.359,0-2.874,0-2.874h0a18.12,18.12,0,0,1-6.469.966Z" transform="translate(-703.537 -592.028)" fill="#bebed0"/>
      <path id="Path_235" data-name="Path 235" d="M851.04,575.366c-.1.19-.2.388-.314.594a33.46,33.46,0,0,1-2.565,3.915c-.381.406-.684,3.143-.636,4.465s-.5,7.378-2.635,10.521a10.069,10.069,0,0,0-1.318,5.587,17.981,17.981,0,0,0,.106,1.8c.079.731.18,1.187.18,1.187l-3.4,1.191h-4.089l-2.814-.837-.736-2.055s.246-.04.8-.149,1.415-.293,2.647-.584a3.193,3.193,0,0,0,2.538-2.892l1.722-12.046a11.56,11.56,0,0,0-.329-5.146,4.13,4.13,0,0,1-.2-2.459,3.923,3.923,0,0,1,.539-1.3s.657-.517,1.649-1.2c.438-.3.946-.636,1.492-.973,2.4-1.485,5.555-3,7.067-1.9a1.956,1.956,0,0,1,.7,1A2.553,2.553,0,0,1,851.04,575.366Z" transform="translate(-687.253 -479.147)" fill="#a5636d"/>
      <path id="Path_236" data-name="Path 236" d="M843.849,735.33l-3.4,1.191h-4.081l-2.814-.837-.736-2.055s.246-.04.8-.149a1.5,1.5,0,0,0,.478,1.327,1.6,1.6,0,0,0,1.013.381l1.288.041c.224,0,.451.013.675.013a20.429,20.429,0,0,0,6.606-1.1C843.758,734.874,843.849,735.33,843.849,735.33Z" transform="translate(-687.253 -611.043)" opacity="0.1"/>
      <path id="Path_237" data-name="Path 237" d="M822.148,733.811l-1.286-.043a1.617,1.617,0,0,1-1.015-.381,1.588,1.588,0,0,1-.426-1.64s-2.874-.652-3.615-.221-.379,2.814,1.7,3.4c2.035.569,9.621,1.406,11.805,1.065l.138-.025c1.976-.406,0-3.247,0-3.247h0A20.376,20.376,0,0,1,822.148,733.811Z" transform="translate(-673.006 -609.32)" fill="#bebed0"/>
      <path id="Path_238" data-name="Path 238" d="M897.836,572.507a17.2,17.2,0,0,1-4.028,1.022,1.8,1.8,0,0,1-.307-.014h0a35.4,35.4,0,0,0-4.8.234c-.788.07-1.546.144-2.173.208-.934.1-1.577.167-1.577.167v-.609c.438-.3.947-.636,1.493-.973,2.4-1.485,5.555-3,7.067-1.9,2.128-1.027,4.287-1.516,4.9.307A3.287,3.287,0,0,1,897.836,572.507Z" transform="translate(-730.021 -476.701)" opacity="0.1"/>
      <path id="Path_239" data-name="Path 239" d="M903.674,497.461a8.507,8.507,0,0,1-2.822,5.663c-3.118,3.044-1.8,7.416-1.8,7.416a24.6,24.6,0,0,1-5.322,1.5,1.8,1.8,0,0,1-.307-.014,57.519,57.519,0,0,0-6.981.442c-.934.1-1.577.167-1.577.167V499.7L902.1,495.52l1.561,1.554A2.88,2.88,0,0,1,903.674,497.461Z" transform="translate(-729.955 -415.821)" fill="#5c5c8e"/>
      <path id="Path_240" data-name="Path 240" d="M955.5,576.89" transform="translate(-787.9 -482.577)" fill="none"/>
      <g id="Group_16" data-name="Group 16" transform="translate(154.922 79.705)" opacity="0.1">
        <path id="Path_241" data-name="Path 241" d="M885.194,587.777l-.284.031v.137s.643-.07,1.577-.167c1.577-.16,3.985-.384,5.578-.451A62.857,62.857,0,0,0,885.194,587.777Z" transform="translate(-884.91 -570.828)"/>
        <path id="Path_242" data-name="Path 242" d="M940.429,497.105l-1.561-1.555-1.04.26,1.307,1.3a2.884,2.884,0,0,1,0,.39,8.509,8.509,0,0,1-2.822,5.663c-3.118,3.042-1.8,7.416-1.8,7.416a29.556,29.556,0,0,1-4.839,1.457,4.451,4.451,0,0,1,.5.027,1.8,1.8,0,0,0,.307.016,24.61,24.61,0,0,0,5.322-1.5s-1.329-4.373,1.8-7.416a8.51,8.51,0,0,0,2.821-5.663A2.871,2.871,0,0,0,940.429,497.105Z" transform="translate(-921.639 -495.55)"/>
      </g>
      <path id="Path_243" data-name="Path 243" d="M772.25,447.622s-5.208-3.614-5.591-.359,5.591,2.789,5.591,2.789Z" transform="translate(-632.961 -375.116)" fill="#a5636d"/>
      <path id="Path_244" data-name="Path 244" d="M802.51,442.13s-2.818,1.864-4.377,1.749c0,0-4.26.571-4.756.286s-.8,4.131-.8,4.131l7-.494,4.49-.686s2.245-1.369,2.245-2.549S802.51,442.13,802.51,442.13Z" transform="translate(-654.24 -372.02)" fill="#f7cddd"/>
      <path id="Path_245" data-name="Path 245" d="M802.51,442.13s-2.818,1.864-4.377,1.749c0,0-4.26.571-4.756.286s-.8,4.131-.8,4.131l7-.494,4.49-.686s2.245-1.369,2.245-2.549S802.51,442.13,802.51,442.13Z" transform="translate(-654.24 -372.02)" opacity="0.05"/>
      <path id="Path_246" data-name="Path 246" d="M801.459,494.463s-6.334-.262-4.916,2.694,6.22-.632,6.22-.632Z" transform="translate(-657.322 -414.948)" fill="#a5636d"/>
      <path id="Path_247" data-name="Path 247" d="M839.872,414.025s-5.135-3.842-4.411-8.52,4.411,3.581,4.411,3.581Z" transform="translate(-689.362 -340.795)" fill="#5c5c8e"/>
      <path id="Path_248" data-name="Path 248" d="M793.137,311.764a6.5,6.5,0,0,1-1.827,4.51,6.1,6.1,0,0,1-.937.8,6.407,6.407,0,0,1-3.051,1.148c-.223.022-.447.034-.675.034a6.331,6.331,0,0,1-2.139-.359,6.491,6.491,0,1,1,8.63-6.124Z" transform="translate(-644.047 -259.745)" fill="#a5636d"/>
      <path id="Path_249" data-name="Path 249" d="M893.755,497.461c-.582.108-1.3.3-1.3.6,0,.508-8.114,3.247-8.114,3.247s.3.708-.506,1.925-7.4,8.215-7.4,8.215l.021.208.084.806.4,3.854a13.362,13.362,0,0,0-3.348-.812,1.113,1.113,0,0,1-.81-.377,3.922,3.922,0,0,1,.539-1.3s.657-.517,1.649-1.2V499.7L892.2,495.52l1.561,1.554A2.858,2.858,0,0,1,893.755,497.461Z" transform="translate(-720.037 -415.821)" opacity="0.1"/>
      <path id="Path_250" data-name="Path 250" d="M858.805,381.452s-2.029.2-2.029.709-8.114,3.247-8.114,3.247.3.708-.506,1.925-7.4,8.217-7.4,8.217l.508,4.867a13.362,13.362,0,0,0-3.348-.812c-.359.045-.763-.289-1.1-.679a7.067,7.067,0,0,1-.731-1.043s.914-3.856-.3-4.768,1.318-7.606,1.318-7.606,1.146-4.759.808-6.8a2.454,2.454,0,0,0-.1-.4.144.144,0,0,0-.014-.045c-.718-1.95-8.506-18.319-8.506-18.319a11.773,11.773,0,0,1,.1-1.388c.016-.128.038-.26.061-.4a6.7,6.7,0,0,1,.158-.718,4.512,4.512,0,0,1,.147-.447c.241-.618.609-1.094,1.158-1.1a3.4,3.4,0,0,1,2.037-.857,8.861,8.861,0,0,1,4.558.857c4.765,2.026,5.882,2.13,5.882,2.13l2.394,3.143.492.645a62.12,62.12,0,0,1,4.887,7.417,13.2,13.2,0,0,0,3.281,4.109C857.182,375.367,858.805,381.452,858.805,381.452Z" transform="translate(-684.357 -300.526)" fill="#f7cddd"/>
      <path id="Path_251" data-name="Path 251" d="M894.65,437.05s6.771,1.674,9.395,5.894Z" transform="translate(-737.979 -367.852)" opacity="0.1"/>
      <path id="Path_252" data-name="Path 252" d="M906.3,478.34s1.281,8.6.925,9.244S906.3,478.34,906.3,478.34Z" transform="translate(-747.536 -401.726)" opacity="0.1"/>
      <path id="Path_253" data-name="Path 253" d="M877.038,492.983c-.492.645-2.491,5.629-2.491,5.629l.576,8.369.508,4.867a13.344,13.344,0,0,0-3.346-.812c-.359.045-.765-.289-1.1-.679.526-2.85,1.652-8.815,1.855-8.93a27.89,27.89,0,0,0,1.71-6.286c.072-1.342,1.976-4.332,1.976-4.332S877.534,492.338,877.038,492.983Z" transform="translate(-718.732 -411.957)" opacity="0.1"/>
      <path id="Path_254" data-name="Path 254" d="M840.75,383.791c-.126.379-.32,2.586-.32,2.586a2.986,2.986,0,0,1-2.523,2.784,2.448,2.448,0,0,0-.1-.4c-.609-1.722-8.52-18.357-8.52-18.357a10.928,10.928,0,0,1,.316-2.5,10.1,10.1,0,0,1,4.449.273c.788-.1,3.36,5.009,3.36,5.009s1.713,3.915,1.9,4.449a9.451,9.451,0,0,1,.076,1.713c.075.305.876.568.99.988s.04,1.257.115,1.406A6.225,6.225,0,0,1,840.75,383.791Z" transform="translate(-684.357 -310.98)" opacity="0.1"/>
      <path id="Path_255" data-name="Path 255" d="M832.55,382.078c-.126.381-.32,2.586-.32,2.586a2.873,2.873,0,0,1-2.026,2.642,4.249,4.249,0,0,1-1.218.242l-1.223,1.063-5.648,4.158s-2.1-3.892-1.534-3.913,3.865-2.787,3.865-2.787c1.008-.539,2.017-2.335,2.486-3.258a2.842,2.842,0,0,1-.061-.334c-.2-1.722-4.463-8.317-4.463-8.317a12.455,12.455,0,0,1-2.288-5.528c-.018-.083-.03-.167-.047-.253a2.578,2.578,0,0,1-.032-.338c-.077-1.381.929-1.884,2.121-2h0a8.513,8.513,0,0,1,1.868.057,13.524,13.524,0,0,1,1.827.359c.51-.068,1.767,2.053,2.592,3.556h0c.444.815.763,1.451.763,1.451s1.713,3.917,1.9,4.449a9.443,9.443,0,0,1,.075,1.713c.075.3.876.569.99.99s.04,1.257.115,1.406A6.243,6.243,0,0,1,832.55,382.078Z" transform="translate(-676.766 -309.572)" fill="#f7cddd"/>
      <path id="Path_256" data-name="Path 256" d="M806.34,323.488a3.87,3.87,0,0,1-4.215.539,28.288,28.288,0,0,1-3.876-2.367c-.841-.514-1.731-.934-2.559-1.464h0c-.122-.079-.241-.158-.359-.241-.955-.675-1.783-1.543-2.773-2.155a4.31,4.31,0,0,0-2.227-.718,2.532,2.532,0,0,0-1.061.223,1.425,1.425,0,0,0-.18.088,4.578,4.578,0,0,0-.9.674c-.28.251-.548.519-.842.754-.018-.083-.031-.167-.047-.253a2.566,2.566,0,0,1-.032-.338c-.223.022-.447.034-.675.034a6.331,6.331,0,0,1-2.139-.359.145.145,0,0,0-.016-.081,5.114,5.114,0,0,0-1.71-3.351,11.911,11.911,0,0,0-2.374-.9,6.491,6.491,0,1,1,12.231.7,8.861,8.861,0,0,1,4.558.857c4.765,2.026,5.882,2.13,5.882,2.13l2.394,3.143a2.686,2.686,0,0,0-.578,1.246C804.8,322.5,805.621,323.089,806.34,323.488Z" transform="translate(-644.004 -259.757)" opacity="0.1"/>
      <path id="Path_257" data-name="Path 257" d="M776.569,293.285a5.12,5.12,0,0,1,1.712,3.348,2.61,2.61,0,0,0,.391,1.135c.539.708,1.645.508,2.358,0a13.849,13.849,0,0,1,2.071-1.638,3.569,3.569,0,0,1,3.289.49c.99.62,1.818,1.487,2.773,2.155.925.652,1.956,1.117,2.918,1.7a27.771,27.771,0,0,0,3.876,2.367,3.883,3.883,0,0,0,4.213-.539c-.718-.4-1.543-.988-1.487-1.843s1.051-1.492.984-2.369-1.1-1.22-1.837-1.651c-1.545-.9-2.2-2.874-2.534-4.7-.257-1.426-.469-3.019-1.534-3.935-.688-.589-1.616-.781-2.31-1.365a7.1,7.1,0,0,1-1.437-2.168,8.622,8.622,0,0,0-2.786-3.256,4.467,4.467,0,0,0-4.025-.55c-.5.2-.961.508-1.457.718-1.236.539-2.649.462-3.872,1.024-1.507.693-2.486,2.223-3.382,3.676-.758,1.245-2.261,3.439-1.836,5.056C773.083,292.594,775.452,292.506,776.569,293.285Z" transform="translate(-637.837 -239.182)" fill="#4c3e42"/>
      <g id="Group_17" data-name="Group 17" transform="translate(134.744 49.559)" opacity="0.1">
        <path id="Path_258" data-name="Path 258" d="M920.259,378.338a1.141,1.141,0,0,0-.034-.2,3.039,3.039,0,0,0-.645,1.349,1.223,1.223,0,0,0,.029.347A2.612,2.612,0,0,0,920.259,378.338Z" transform="translate(-893.174 -369.081)"/>
        <path id="Path_259" data-name="Path 259" d="M796.241,340.495a27.745,27.745,0,0,1-3.874-2.367c-.964-.587-2-1.052-2.92-1.7-.955-.675-1.783-1.543-2.773-2.155a3.594,3.594,0,0,0-3.288-.492,13.387,13.387,0,0,0-2.071,1.64c-.715.517-1.81.718-2.358,0a2.61,2.61,0,0,1-.391-1.135,5.117,5.117,0,0,0-1.71-3.348c-1.119-.781-3.488-.693-3.917-2.335a2.551,2.551,0,0,1-.056-.9,3.588,3.588,0,0,0-.25,2.11c.431,1.649,2.8,1.561,3.917,2.335a5.124,5.124,0,0,1,1.712,3.35,2.631,2.631,0,0,0,.39,1.135c.539.708,1.645.508,2.36-.009a13.293,13.293,0,0,1,2.071-1.638,3.574,3.574,0,0,1,3.288.492c.99.62,1.818,1.487,2.773,2.155.925.654,1.956,1.117,2.919,1.7a27.605,27.605,0,0,0,3.876,2.369,3.886,3.886,0,0,0,4.213-.539,5.159,5.159,0,0,1-.785-.519A4.476,4.476,0,0,1,796.241,340.495Z" transform="translate(-772.561 -327.7)"/>
      </g>
      <path id="Path_260" data-name="Path 260" d="M717.723,442.429l14.368-5.366a1.365,1.365,0,0,1,1.758.8h0a1.367,1.367,0,0,1-.8,1.758l-14.368,5.368-3.078-.309Z" transform="translate(-591.086 -367.791)" fill="#5c5c8e"/>
      <path id="Path_261" data-name="Path 261" d="M733.4,438.4h0a1.369,1.369,0,0,1-.8,1.76l-14.368,5.366-2.313-.232-.332.359,3.078.309,14.368-5.368a1.367,1.367,0,0,0,.8-1.758h0a1.361,1.361,0,0,0-.559-.682A1.479,1.479,0,0,1,733.4,438.4Z" transform="translate(-591.07 -368.754)" fill="#fff" opacity="0.1"/>
      <path id="Path_262" data-name="Path 262" d="M695.423,415.58l.957,2.561-2.527-.253-.553-.056.756-.8Z" transform="translate(-568.786 -340.942)" fill="#efc8c4"/>
      <path id="Path_263" data-name="Path 263" d="M716.371,475.42a.546.546,0,0,1,.147.162.231.231,0,0,1,0,.25.561.561,0,0,1-.14.1.458.458,0,0,0-.2.347l-.553-.056Z" transform="translate(-591.102 -399.331)" fill="#727a9c"/>
      <path id="Path_264" data-name="Path 264" d="M645.772,289.53l-2.423-1.182a.293.293,0,0,1-.135-.392l.257-.528a.291.291,0,0,1,.391-.135l1.633.8,1.7-3.495a.3.3,0,0,1,.392-.137l.528.259a.291.291,0,0,1,.135.392l-2.091,4.287A.293.293,0,0,1,645.772,289.53Z" transform="translate(-531.676 -242.642)" fill="#3acc6c"/>
      <path id="Path_265" data-name="Path 265" d="M675.242,373.684l-2.423-1.182a.293.293,0,0,1-.135-.392l.257-.528a.3.3,0,0,1,.393-.135l1.631.8,1.7-3.5a.3.3,0,0,1,.392-.137l.526.259a.293.293,0,0,1,.137.392l-2.091,4.287a.3.3,0,0,1-.393.135Z" transform="translate(-555.854 -311.679)" fill="#3acc6c"/>
      <path id="Path_266" data-name="Path 266" d="M662.008,332.19l-2.423-1.182a.3.3,0,0,1-.136-.392l.259-.528a.291.291,0,0,1,.392-.135l1.633.8,1.7-3.5a.293.293,0,0,1,.392-.135l.528.257a.3.3,0,0,1,.135.393l-2.092,4.291a.293.293,0,0,1-.391.135Z" transform="translate(-544.996 -277.636)" fill="#3acc6c"/>
      <path id="Path_267" data-name="Path 267" d="M688.042,411.7l-2.423-1.182a.293.293,0,0,1-.135-.392l.257-.528a.293.293,0,0,1,.392-.135l1.633.8,1.7-3.495a.3.3,0,0,1,.393-.137l.526.259a.291.291,0,0,1,.135.392l-2.089,4.287A.3.3,0,0,1,688.042,411.7Z" transform="translate(-566.355 -342.87)" fill="#3acc6c"/>
      <path id="Path_268" data-name="Path 268" d="M182.08,693.36s1.069,1.4-.492,3.506-2.85,3.89-2.335,5.208c0,0,2.356-3.917,4.273-3.971S184.189,695.716,182.08,693.36Z" transform="translate(-150.972 -578.129)" fill="#3acc6c"/>
      <path id="Path_269" data-name="Path 269" d="M182.377,693.36a1.723,1.723,0,0,1,.219.438c1.87,2.2,2.874,4.249,1.069,4.31-1.676.047-3.685,3.042-4.165,3.8a1.381,1.381,0,0,0,.056.18s2.356-3.917,4.273-3.971S184.486,695.716,182.377,693.36Z" transform="translate(-151.269 -578.129)" opacity="0.1"/>
      <path id="Path_270" data-name="Path 270" d="M205.456,701.83c0,.49-.056.9-.124.9s-.122-.4-.122-.9.068-.26.137-.26S205.456,701.337,205.456,701.83Z" transform="translate(-172.362 -584.817)" fill="#ffd037"/>
      <path id="Path_271" data-name="Path 271" d="M206.52,704.97c-.431.235-.808.379-.841.318s.291-.3.718-.539.26-.065.293,0S206.953,704.735,206.52,704.97Z" transform="translate(-172.746 -587.372)" fill="#ffd037"/>
      <path id="Path_272" data-name="Path 272" d="M153.174,693.36s-1.067,1.4.494,3.506,2.848,3.89,2.335,5.208c0,0-2.355-3.917-4.273-3.971S151.066,695.716,153.174,693.36Z" transform="translate(-127.709 -578.129)" fill="#3acc6c"/>
      <path id="Path_273" data-name="Path 273" d="M153.131,693.36a1.762,1.762,0,0,0-.217.438c-1.871,2.2-2.874,4.249-1.069,4.31,1.674.047,3.684,3.042,4.165,3.8a1.385,1.385,0,0,1-.057.18s-2.355-3.933-4.276-3.987S151.023,695.716,153.131,693.36Z" transform="translate(-127.667 -578.129)" opacity="0.1"/>
      <path id="Path_274" data-name="Path 274" d="M153.05,701.83c0,.49.054.9.122.9s.124-.4.124-.9-.068-.26-.136-.26S153.05,701.337,153.05,701.83Z" transform="translate(-129.57 -584.817)" fill="#ffd037"/>
      <path id="Path_275" data-name="Path 275" d="M148.06,704.97c.433.235.808.379.841.318s-.291-.3-.718-.539-.262-.065-.295,0S147.629,704.735,148.06,704.97Z" transform="translate(-125.262 -587.372)" fill="#ffd037"/>
      <ellipse id="Ellipse_12" data-name="Ellipse 12" cx="11.169" cy="1.713" rx="11.169" ry="1.713" transform="translate(17.119 131.201)" fill="#518aff" opacity="0.1"/>
      <path id="Path_276" data-name="Path 276" d="M159.272,728.394l-.054.436-.074.616-.032.257-.074.616-.034.257-.074.616-.855,7c-.077.625-1.1,1.114-2.335,1.114H151.3c-1.234,0-2.254-.489-2.335-1.114l-.855-7-.075-.616-.031-.257-.077-.616-.031-.257-.075-.616-.054-.436c-.041-.359.51-.654,1.209-.654h9.086C158.765,727.74,159.317,728.04,159.272,728.394Z" transform="translate(-125.236 -606.334)" fill="#65617d"/>
      <path id="Path_277" data-name="Path 277" d="M137.2,682.05l-.075.616H125.884l-.074-.616Z" transform="translate(-103.217 -559.554)" fill="#9d9cb5"/>
      <path id="Path_278" data-name="Path 278" d="M137.578,686.91l-.075.616H126.475l-.075-.616Z" transform="translate(-103.701 -563.541)" fill="#9d9cb5"/>
      <path id="Path_279" data-name="Path 279" d="M137.955,691.77l-.075.616H127.065l-.075-.616Z" transform="translate(-104.185 -567.528)" fill="#9d9cb5"/>
    </g>
  </g>
</svg>
